<svg width="60" height="60" viewBox="0 0 18 18" fill="none" xmlns="http://www.w3.org/2000/svg">
<path d="M16 2V16H2V2H16ZM16 0H2C0.9 0 0 0.9 0 2V16C0 16.5304 0.210714 17.0391 0.585786 17.4142C0.960859 17.7893 1.46957 18 2 18H16C17.11 18 18 17.11 18 16V2C18 1.46957 17.7893 0.960859 17.4142 0.585786C17.0391 0.210714 16.5304 0 16 0ZM4.5 3C3.67 3 3 3.67 3 4.5C3 5.33 3.67 6 4.5 6C5.33 6 6 5.33 6 4.5C6 3.67 5.33 3 4.5 3ZM13.5 12C12.67 12 12 12.67 12 13.5C12 14.33 12.67 15 13.5 15C14.33 15 15 14.33 15 13.5C15 12.67 14.33 12 13.5 12Z" fill="black"/>
</svg>
