<svg width="60" height="60" viewBox="0 0 18 18" fill="none" xmlns="http://www.w3.org/2000/svg">
<path d="M16 2V16H2V2H16ZM16 0H2C0.9 0 0 0.9 0 2V16C0 17.1 0.9 18 2 18H16C17.1 18 18 17.1 18 16V2C18 0.9 17.1 0 16 0ZM4.5 3C3.7 3 3 3.7 3 4.5C3 5.3 3.7 6 4.5 6C5.3 6 6 5.3 6 4.5C6 3.7 5.3 3 4.5 3ZM13.5 12C12.7 12 12 12.7 12 13.5C12 14.3 12.7 15 13.5 15C14.3 15 15 14.3 15 13.5C15 12.7 14.3 12 13.5 12ZM13.5 7.5C12.7 7.5 12 8.2 12 9C12 9.8 12.7 10.5 13.5 10.5C14.3 10.5 15 9.8 15 9C15 8.2 14.3 7.5 13.5 7.5ZM13.5 3C12.7 3 12 3.7 12 4.5C12 5.3 12.7 6 13.5 6C14.3 6 15 5.3 15 4.5C15 3.7 14.3 3 13.5 3ZM4.5 7.5C3.7 7.5 3 8.2 3 9C3 9.8 3.7 10.5 4.5 10.5C5.3 10.5 6 9.8 6 9C6 8.2 5.3 7.5 4.5 7.5ZM4.5 12C3.7 12 3 12.7 3 13.5C3 14.3 3.7 15 4.5 15C5.3 15 6 14.3 6 13.5C6 12.7 5.3 12 4.5 12Z" fill="black"/>
</svg>
