<svg width="20" height="22" viewBox="0 0 20 22" fill="none" xmlns="http://www.w3.org/2000/svg">
<path d="M8.998 0.579652C9.30251 0.403372 9.64814 0.310547 10 0.310547C10.3519 0.310547 10.6975 0.403372 11.002 0.579652L18.502 4.92165C18.8055 5.09735 19.0575 5.34977 19.2327 5.65359C19.4078 5.95741 19.5 6.30195 19.5 6.65265V15.3467C19.4998 15.6972 19.4076 16.0415 19.2324 16.3451C19.0572 16.6488 18.8054 16.901 18.502 17.0767L11.002 21.4197C10.6975 21.5959 10.3519 21.6888 10 21.6888C9.64814 21.6888 9.30251 21.5959 8.998 21.4197L1.498 17.0777C1.19449 16.902 0.942512 16.6495 0.767346 16.3457C0.592179 16.0419 0.499982 15.6974 0.5 15.3467V6.65265C0.500157 6.30212 0.592438 5.95779 0.767595 5.65416C0.942753 5.35053 1.19463 5.09827 1.498 4.92265L8.998 0.579652ZM3.25 7.09165C3.17397 7.04752 3.08764 7.02421 2.99972 7.02409C2.91181 7.02396 2.82542 7.04701 2.74926 7.09093C2.67309 7.13484 2.60986 7.19806 2.56592 7.2742C2.52198 7.35035 2.4989 7.43674 2.499 7.52465V14.1937C2.49916 14.5442 2.59144 14.8885 2.7666 15.1921C2.94175 15.4958 3.19363 15.748 3.497 15.9237L9.248 19.2537C9.32396 19.2977 9.4102 19.321 9.49802 19.3212C9.58585 19.3214 9.67218 19.2984 9.74831 19.2546C9.82444 19.2108 9.8877 19.1478 9.93171 19.0718C9.97571 18.9957 9.99892 18.9095 9.999 18.8217V12.1527C9.99884 11.8021 9.90656 11.4578 9.7314 11.1542C9.55625 10.8505 9.30437 10.5983 9.001 10.4227L3.25 7.09165ZM13.767 4.51665C13.289 4.24065 12.513 4.24065 12.035 4.51665C11.557 4.79265 11.557 5.24065 12.035 5.51665C12.513 5.79265 13.289 5.79265 13.767 5.51665C14.245 5.24065 14.245 4.79265 13.767 4.51665ZM7.967 4.51665C7.489 4.24065 6.713 4.24065 6.235 4.51665C5.757 4.79265 5.757 5.24065 6.235 5.51665C6.713 5.79265 7.489 5.79265 7.967 5.51665C8.446 5.24065 8.446 4.79265 7.967 4.51665ZM14.992 14.8447C15.589 14.4997 16.074 13.6607 16.074 12.9697C16.074 12.2797 15.589 11.9997 14.992 12.3447C14.394 12.6897 13.909 13.5297 13.909 14.2197C13.909 14.9097 14.394 15.1897 14.991 14.8447M4.365 11.1997C4.843 11.4767 5.231 11.2527 5.231 10.6997C5.231 10.1477 4.843 9.47665 4.365 9.19965C3.887 8.92365 3.499 9.14765 3.499 9.69965C3.499 10.2527 3.887 10.9237 4.365 11.1997ZM8.695 16.6977C8.695 17.2497 8.306 17.4737 7.828 17.1977C7.35 16.9217 6.962 16.2497 6.962 15.6977C6.962 15.1457 7.35 14.9217 7.828 15.1977C8.306 15.4737 8.695 16.1457 8.695 16.6977ZM5.231 14.6997C5.231 15.2527 4.843 15.4767 4.365 15.1997C3.887 14.9237 3.499 14.2527 3.499 13.6997C3.499 13.1477 3.887 12.9237 4.365 13.1997C4.843 13.4767 5.231 14.1477 5.231 14.6997ZM8.694 12.6997C8.694 13.2527 8.306 13.4767 7.828 13.1997C7.349 12.9247 6.962 12.2527 6.962 11.6997C6.962 11.1487 7.349 10.9247 7.828 11.1997C8.306 11.4767 8.694 12.1487 8.694 12.6997Z" fill="black"/>
</svg>
