<svg width="20" height="19" viewBox="0 0 25 24" fill="none" xmlns="http://www.w3.org/2000/svg">
<path d="M24.4504 11.1095L2.45037 0.109518C2.27794 0.0232848 2.08426 -0.011267 1.89265 0.0100231C1.70104 0.0313133 1.51967 0.107538 1.37037 0.229518C1.2278 0.349011 1.12138 0.505905 1.06308 0.682562C1.00479 0.859219 0.996921 1.04864 1.04037 1.22952L3.69037 10.9995H15.0004V12.9995H3.69037L1.00037 22.7395C0.959599 22.8906 0.95484 23.0491 0.986477 23.2023C1.01811 23.3555 1.08527 23.4992 1.18253 23.6218C1.2798 23.7443 1.40446 23.8423 1.54651 23.908C1.68855 23.9736 1.844 24.0049 2.00037 23.9995C2.15692 23.9986 2.31105 23.9609 2.45037 23.8895L24.4504 12.8895C24.6142 12.8056 24.7516 12.6781 24.8476 12.5211C24.9436 12.364 24.9944 12.1836 24.9944 11.9995C24.9944 11.8155 24.9436 11.635 24.8476 11.478C24.7516 11.3209 24.6142 11.1934 24.4504 11.1095Z" fill="black"/>
</svg>
